# xmcd
#
# Track frame offsets:
#	150
#	13670
#	29459
#	49029
#	66854
#	88831
#	112877
#	130980
#	151077
#	170211
#	188365
#	215242
#	233974
#	250868
#
# Disc length: 3633
#
# Revision: 13
# Processed by: cddbd v1.5.1PL0 Copyright (c) Steve Scherf et al.
# Submitted via: Feurio! 1.67 - http://www.feurio.com
# Normalized: r12:DSETVAR1
#
DISCID=be0e2f0e
DTITLE=Various Artist - Singles 2 #be0e2f0ebea3c8ca
DYEAR=1900
DGENRE=Pop
TTITLE0=Five - If Ya Gettin' Down
TTITLE1=N'sync - Tearing Up My Heart
TTITLE2=Moenia - No Dices Mas
TTITLE3=Alejandra Guzman - Algo Natural
TTITLE4=Bush - Swallowed
TTITLE5=Joan Osburne - One Of Us
TTITLE6=Alanis Morrisette - You Learn
TTITLE7=Jeniffer Lopez - If You Had My Love
TTITLE8=Moenia - Manto Estelar
TTITLE9=Cher - Believe
TTITLE10=Oasis - Stand By Me
TTITLE11=Alanis Morrisette - You Oughta Know
TTITLE12=Cher - Strong Enough
TTITLE13=Oasis - Don't Go Away
EXTD=
EXTT0=
EXTT1=
EXTT2=
EXTT3=
EXTT4=
EXTT5=
EXTT6=
EXTT7=
EXTT8=
EXTT9=
EXTT10=
EXTT11=
EXTT12=
EXTT13=
PLAYORDER=
